<svg width="402" height="68" fill="none" xmlns="http://www.w3.org/2000/svg"><path d="M197.806 16.846c-.384-.384-.821-.576-1.308-.577a2.13 2.13 0 00-.462.077l-15.23 3.77 6.576-17.808c.128-.257.193-.487.193-.693 0-.435-.167-.813-.5-1.134A1.708 1.708 0 00185.844 0h-12.615c-.41 0-.769.115-1.077.346a1.644 1.644 0 00-.615.885l-7.731 31.73c-.128.616.038 1.116.5 1.5.333.283.73.424 1.192.424.205 0 .359-.012.462-.038l15.615-3.885-7.577 31.077a1.46 1.46 0 00.173 1.153c.218.36.545.603.981.731.256.051.436.077.539.077.743 0 1.282-.32 1.615-.961l20.769-44.5c.282-.616.193-1.18-.269-1.693z" fill="#B3404A"/><path d="M12.864 47.528c-2.24 0-4.432-.272-6.576-.816-2.112-.544-3.808-1.264-5.088-2.16l2.64-5.616c1.248.832 2.704 1.488 4.368 1.968 1.664.48 3.36.72 5.088.72 1.6 0 2.752-.208 3.456-.624.736-.448 1.104-1.04 1.104-1.776 0-.832-.448-1.44-1.344-1.824-.896-.416-2.32-.816-4.272-1.2-2.144-.448-3.904-.912-5.28-1.392a9.147 9.147 0 01-3.6-2.448c-.992-1.12-1.488-2.656-1.488-4.608 0-1.728.496-3.264 1.488-4.608.992-1.344 2.416-2.384 4.272-3.12 1.888-.768 4.096-1.152 6.624-1.152a23.5 23.5 0 015.424.624c1.76.384 3.28.976 4.56 1.776l-2.448 5.616c-2.304-1.408-4.912-2.112-7.824-2.112-1.568 0-2.736.24-3.504.72-.736.448-1.104 1.056-1.104 1.824 0 .832.448 1.44 1.344 1.824.896.384 2.32.768 4.272 1.152 2.112.448 3.856.928 5.232 1.44a8.318 8.318 0 013.6 2.4c1.024 1.088 1.536 2.576 1.536 4.464 0 1.76-.496 3.312-1.488 4.656-.96 1.344-2.384 2.4-4.272 3.168-1.888.736-4.128 1.104-6.72 1.104zm21.985-22.224H26.16V19.4h24.96v5.904h-8.688V47h-7.584V25.304zm36.92 16.224H58.857L56.553 47h-7.344l12.384-27.6h7.488L81.513 47h-7.488l-2.256-5.472zm-2.304-5.472l-4.128-9.984-4.176 9.984h8.304zM111.19 19.4V47h-6.24L92.23 31.784V47h-7.44V19.4h6.24l12.72 15.264V19.4h7.44zm7.397 0h13.008c3.136 0 5.888.56 8.256 1.68 2.368 1.12 4.192 2.72 5.472 4.8 1.312 2.08 1.968 4.528 1.968 7.344 0 2.784-.656 5.216-1.968 7.296-1.28 2.08-3.104 3.68-5.472 4.8-2.368 1.12-5.12 1.68-8.256 1.68h-13.008V19.4zm12.768 21.648c2.56 0 4.576-.672 6.048-2.016 1.472-1.376 2.208-3.312 2.208-5.808s-.736-4.432-2.208-5.808c-1.472-1.376-3.488-2.064-6.048-2.064h-5.184v15.696h5.184zM225.864 47.528c-2.24 0-4.432-.272-6.576-.816-2.112-.544-3.808-1.264-5.088-2.16l2.64-5.616c1.248.832 2.704 1.488 4.368 1.968 1.664.48 3.36.72 5.088.72 1.6 0 2.752-.208 3.456-.624.736-.448 1.104-1.04 1.104-1.776 0-.832-.448-1.44-1.344-1.824-.896-.416-2.32-.816-4.272-1.2-2.144-.448-3.904-.912-5.28-1.392a9.147 9.147 0 01-3.6-2.448c-.992-1.12-1.488-2.656-1.488-4.608 0-1.728.496-3.264 1.488-4.608.992-1.344 2.416-2.384 4.272-3.12 1.888-.768 4.096-1.152 6.624-1.152a23.5 23.5 0 015.424.624c1.76.384 3.28.976 4.56 1.776l-2.448 5.616c-2.304-1.408-4.912-2.112-7.824-2.112-1.568 0-2.736.24-3.504.72-.736.448-1.104 1.056-1.104 1.824 0 .832.448 1.44 1.344 1.824.896.384 2.32.768 4.272 1.152 2.112.448 3.856.928 5.232 1.44a8.318 8.318 0 013.6 2.4c1.024 1.088 1.536 2.576 1.536 4.464 0 1.76-.496 3.312-1.488 4.656-.96 1.344-2.384 2.4-4.272 3.168-1.888.736-4.128 1.104-6.72 1.104zm39.494-6.336V47h-22.224V19.4h21.696v5.808h-14.208v5.04h12.576v5.52h-12.576v5.424h14.736zm17.766-1.584h-4.656V47h-7.584V19.4h12.576c3.808 0 6.832.912 9.071 2.736 2.241 1.792 3.361 4.272 3.361 7.44 0 2.016-.496 3.776-1.488 5.28-.96 1.472-2.336 2.624-4.128 3.456L296.42 47h-8.16l-5.136-7.392zm5.136-10.032c0-1.376-.448-2.432-1.344-3.168-.896-.736-2.224-1.104-3.984-1.104h-4.464v8.544h4.464c1.76 0 3.088-.368 3.984-1.104.896-.736 1.344-1.792 1.344-3.168zM329.374 19.4l-12 27.6h-7.488l-12-27.6h8.064l7.872 18.768 8.064-18.768h7.488zm3.525 0h7.584V47h-7.584V19.4zm28.298 28.128c-2.912 0-5.536-.608-7.872-1.824-2.336-1.248-4.176-2.96-5.52-5.136-1.344-2.176-2.016-4.624-2.016-7.344 0-2.72.672-5.168 2.016-7.344 1.344-2.208 3.184-3.92 5.52-5.136 2.336-1.248 4.96-1.872 7.872-1.872 2.656 0 4.944.4 6.864 1.2 1.952.8 3.632 2.08 5.04 3.84l-4.896 4.464c-1.824-2.208-4.064-3.312-6.72-3.312-2.336 0-4.272.752-5.808 2.256-1.504 1.504-2.256 3.472-2.256 5.904 0 1.6.336 3.024 1.008 4.272a7.421 7.421 0 002.88 2.832c1.248.672 2.64 1.008 4.176 1.008 2.656 0 4.896-1.104 6.72-3.312l4.896 4.464c-1.376 1.728-3.056 3.008-5.04 3.84-1.952.8-4.24 1.2-6.864 1.2zm38.879-6.336V47h-22.224V19.4h21.696v5.808H385.34v5.04h12.576v5.52H385.34v5.424h14.736z" fill="#fff"/></svg>