<svg width="64" height="64" fill="none" xmlns="http://www.w3.org/2000/svg"><path d="M7.595 17.486a1.768 1.768 0 01-1.768-1.768V7.595c0-.976.792-1.768 1.768-1.768h8.122a1.768 1.768 0 010 3.536H9.363v6.355c0 .976-.792 1.768-1.768 1.768zM56.405 58.173h-8.123a1.768 1.768 0 010-3.536h6.355v-6.355a1.768 1.768 0 013.536 0v8.123c0 .976-.792 1.768-1.768 1.768z" fill="#B3404A"/><path d="M62.232 64H1.768A1.768 1.768 0 010 62.232V1.768C0 .791.792 0 1.768 0h60.464C63.208 0 64 .791 64 1.768v60.464C64 63.21 63.208 64 62.232 64zM3.536 60.464h56.928V3.536H3.536v56.928z" fill="#B3404A"/><path d="M47.66 35.963c1.85-9.265 3.807-20.22 3.582-20.607-.396-.678-38.501 14.384-38.501 14.384l9.855 5.193s4.171 11.06 4.909 11.246c.528.134 5.956-4.726 5.956-4.726l11.292 7.213 2.907-12.703zM34.26 30.926l-4.322 6.554-2.74-6.56 17.444-7.671-10.382 7.677z" fill="#F4B2B0"/><path d="M44.751 50.434a1.76 1.76 0 01-.95-.278L33.632 43.66c-.505.442-1.149 1-1.812 1.559-2.977 2.506-3.732 2.931-4.748 2.675-.964-.244-1.447-1.082-2.248-2.804a91.94 91.94 0 01-1.688-3.937c-.81-1.988-1.58-3.983-1.956-4.967l-9.264-4.882a1.768 1.768 0 01.175-3.208c.095-.038 9.644-3.81 19.118-7.452 5.57-2.141 10.027-3.82 13.247-4.988 1.927-.7 3.433-1.224 4.477-1.56.6-.192 1.055-.326 1.394-.408 1.156-.28 1.978-.019 2.442.777.385.66.489.838-.798 8.17a637.52 637.52 0 01-2.576 13.674 1.769 1.769 0 01-3.468-.692c1.495-7.488 2.744-14.424 3.282-17.896-5.657 1.914-20.82 7.764-32.236 12.251l6.447 3.397c.382.202.677.536.83.94 1.302 3.452 2.895 7.398 3.83 9.404 1.118-.884 2.786-2.31 4.202-3.578.592-.529 1.463-.6 2.131-.172l11.292 7.213a1.768 1.768 0 01-.954 3.258zM29.938 39.248a1.768 1.768 0 01-1.632-1.086L25.565 31.6a1.768 1.768 0 01.92-2.3l17.444-7.67a1.768 1.768 0 011.763 3.04l-10.13 7.49-4.149 6.293a1.768 1.768 0 01-1.475.794zm-.441-7.409l.792 1.897 2.084-3.162-2.876 1.265z" fill="#B3404A"/></svg>