<svg width="64" height="64" fill="none" xmlns="http://www.w3.org/2000/svg"><path d="M7.595 17.486a1.768 1.768 0 01-1.768-1.768V7.595c0-.976.792-1.768 1.768-1.768h8.123a1.768 1.768 0 010 3.536H9.363v6.355c0 .976-.791 1.768-1.768 1.768zM56.405 58.173h-8.123a1.768 1.768 0 010-3.536h6.355v-6.355a1.768 1.768 0 013.536 0v8.123c0 .976-.792 1.768-1.768 1.768z" fill="#B3404A"/><path d="M62.232 64H1.768A1.768 1.768 0 010 62.232V1.768C0 .791.792 0 1.768 0h60.464C63.208 0 64 .791 64 1.768v60.464C64 63.21 63.208 64 62.232 64zM3.536 60.464h56.928V3.536H3.536v56.928z" fill="#B3404A"/><path d="M44.084 34.037c.432.602.848 1.226 1.3 1.799 1.076 1.372 6.605 9.18 6.605 9.18-2.029.007-7.27 0-9.298.007 0 0-3.982-3.932-4.994-5.116-.312-.37-.65-.713-.975-1.055-.174-.19-.39-.231-.606-.224a.681.681 0 00-.663.482c-.107.287-1.553 5.906-1.553 5.906-1.769.048-5.036.077-6.804-.056 0 0-5.178-7.612-6.852-10.308-2.178-3.507-8.232-14.587-8.232-14.587 1.32.001 5.06.004 6.556-.008 0 0 9.02 13.653 9.02 13.564 0-2.415 0-7.805-.006-10.218 0-.19 0-.378-.012-.568-.035-.426-.234-.679-.602-.763-.168-.034-.336-.055-.505-.082-.518-.077-.733-.33-.787-.939-.079-.91.294-1.623 1.035-1.945.312-.133.642-.168.98-.161h6.71s.063 5.465.063 6.928v7.305l8.242-13.12c2.383.006 6.347.006 8.73 0 0 0-2.052 3.555-3.911 6.782" fill="#F4B2B0"/><path d="M30.777 46.824c-1.363 0-2.799-.025-3.814-.1a1.767 1.767 0 01-1.33-.77c-.212-.312-5.217-7.673-6.891-10.37-2.18-3.508-8.034-14.217-8.282-14.672a1.768 1.768 0 011.552-2.615h.002c1.15.001 5.022.004 6.54-.008h.014c.593 0 1.148.298 1.475.794 1.75 2.648 3.979 6.016 5.777 8.724l-.005-4.151c-.702-.2-1.753-.78-1.9-2.449-.145-1.673.656-3.098 2.09-3.722.52-.22 1.068-.318 1.702-.308H34.4c.969 0 1.757.779 1.768 1.747.003.224.063 5.492.063 6.95v1.167l4.977-7.924c.324-.515.89-.828 1.498-.828h.005c2.363.008 6.355.008 8.718 0h.006a1.768 1.768 0 011.53 2.652l-3.91 6.782a1.768 1.768 0 11-3.063-1.765l2.379-4.128c-1.59.001-3.298 0-4.69-.002l-7.721 12.29a1.768 1.768 0 01-3.265-.94v-7.305c0-.912-.025-3.43-.043-5.16h-4.435c.636.423 1.043 1.125 1.114 1.976l.002.033c.016.246.016.477.016.681.007 2.411.007 7.882.007 10.218 0 .78-.512 1.47-1.26 1.694-.461.139-1.343.214-2.07-.836a59.505 59.505 0 01-.305-.446c-.252-.372-.608-.904-1.034-1.543-.85-1.273-1.976-2.97-3.102-4.668-1.587-2.394-3.17-4.788-3.966-5.992-.763.003-1.709.004-2.619.004 1.925 3.491 5.267 9.507 6.744 11.886 1.335 2.15 4.993 7.563 6.322 9.524 1.302.052 3.038.052 4.456.032 1.042-4.037 1.214-4.612 1.263-4.755a2.44 2.44 0 012.288-1.66c.96-.031 1.584.403 1.936.78l.178.187c.282.294.573.598.861.94.68.796 3.044 3.17 4.367 4.486 1.049-.002 2.5-.003 3.952-.002h1.198c-1.69-2.373-3.944-5.523-4.573-6.324-.339-.43-.651-.875-.954-1.305l-.39-.553a1.768 1.768 0 012.87-2.064c.139.193.276.389.414.584.288.41.56.797.84 1.153 1.092 1.392 6.431 8.931 6.658 9.252a1.768 1.768 0 01-1.437 2.79c-1.02.003-2.852-.002-4.683.003-1.805 0-3.606 0-4.614.003h-.006c-.465 0-.912-.183-1.242-.51-.152-.149-3.437-3.395-4.785-4.875a949.828 949.828 0 00-1.051 4.05 1.768 1.768 0 01-1.664 1.327c-.748.02-1.93.04-3.172.04zm4.642-6.777l.002.002-.002-.002z" fill="#B3404A"/></svg>