<svg width="64" height="64" fill="none" xmlns="http://www.w3.org/2000/svg"><path d="M7.595 17.486a1.768 1.768 0 01-1.768-1.768V7.595c0-.976.792-1.768 1.768-1.768h8.123a1.768 1.768 0 110 3.536H9.362v6.355c0 .976-.792 1.768-1.768 1.768zM56.405 58.173h-8.123a1.768 1.768 0 110-3.536h6.355v-6.355a1.768 1.768 0 113.536 0v8.123c0 .976-.792 1.768-1.768 1.768z" fill="#B3404A"/><path d="M62.232 64H1.768A1.768 1.768 0 010 62.232V1.768C0 .791.791 0 1.768 0h60.464C63.21 0 64 .791 64 1.768v60.464C64 63.21 63.209 64 62.232 64zM3.536 60.464h56.928V3.536H3.536v56.928z" fill="#B3404A"/><path d="M50.91 28.052v-2.856a7.953 7.953 0 00-7.953-7.954H21.043a7.953 7.953 0 00-7.953 7.954v13.608a7.953 7.953 0 007.953 7.954h21.914a7.953 7.953 0 007.954-7.954V28.052zm-25.148 10.54V25.365l13.195 6.615-13.195 6.614z" fill="#F4B2B0"/><path d="M42.957 48.526H21.043c-5.36 0-9.722-4.361-9.722-9.722V25.196c0-5.36 4.361-9.722 9.722-9.722h21.914c5.36 0 9.721 4.361 9.721 9.722v2.856a1.768 1.768 0 11-3.536 0v-2.856a6.193 6.193 0 00-6.185-6.186H21.043a6.192 6.192 0 00-6.186 6.186v13.608a6.192 6.192 0 006.186 6.186h21.914a6.192 6.192 0 006.185-6.186v-1.736a1.768 1.768 0 113.536 0v1.736c0 5.36-4.36 9.722-9.721 9.722zM25.762 40.36a1.766 1.766 0 01-1.768-1.768V25.364a1.768 1.768 0 012.56-1.58l13.195 6.614a1.768 1.768 0 010 3.161l-13.195 6.614c-.25.126-.521.188-.792.188zm1.767-12.133v7.501l7.482-3.75-7.482-3.75z" fill="#B3404A"/></svg>